<mxfile host="app.diagrams.net" modified="2023-09-18T02:42:23.831Z" agent="Mozilla/5.0 (Windows NT 10.0; Win64; x64) AppleWebKit/537.36 (KHTML, like Gecko) Chrome/116.0.0.0 Safari/537.36" etag="XHdfeGm3Od8T49XADH66" version="21.7.5" type="github">
  <diagram name="페이지-1" id="O55KuQ3sqbclyLJQzuUj">
    <mxGraphModel dx="723" dy="740" grid="1" gridSize="10" guides="1" tooltips="1" connect="1" arrows="1" fold="1" page="1" pageScale="1" pageWidth="827" pageHeight="1169" math="0" shadow="0">
      <root>
        <mxCell id="0" />
        <mxCell id="1" parent="0" />
      </root>
    </mxGraphModel>
  </diagram>
</mxfile>
